<svg viewBox="0 0 150 150" xmlns="http://www.w3.org/2000/svg" fill-rule="evenodd" clip-rule="evenodd" stroke-linejoin="round" stroke-miterlimit="2"><g fill="#603916" fill-rule="nonzero"><path d="M69.231 64.65a46.809 46.809 0 0114.424-2.251c4.997 0 10.22.8 14.707 2.251a4.257 4.257 0 11-2.622 8.103c-3.662-1.186-7.954-1.838-12.085-1.838-4.063 0-8.033.618-11.802 1.838a4.258 4.258 0 01-2.622-8.103z"/><path d="M23.762 62.399a4.263 4.263 0 004.258-4.258 4.262 4.262 0 00-4.258-4.257 4.262 4.262 0 00-4.258 4.257 4.263 4.263 0 004.258 4.258zm28.379 58.634a4.257 4.257 0 011.709 3.411v15.164h8.516v-6.733a4.259 4.259 0 015.463-4.084 55.883 55.883 0 0015.826 2.301c5.438 0 11.009-.796 16.11-2.3a4.256 4.256 0 015.463 4.083v6.733h8.515v-15.164c0-1.343.634-2.607 1.71-3.411 4.72-3.528 8.696-8.197 11.497-13.502a4.259 4.259 0 013.765-2.27h4.318a4.262 4.262 0 004.257-4.258v-8.799a4.262 4.262 0 00-4.257-4.258h-1.026a4.257 4.257 0 01-4.137-3.25c-.933-3.831-2.748-7.612-5.55-11.56a4.257 4.257 0 01.462-5.475l12.233-12.232c-8.066-5.363-18.917-4.622-26.286 2.308a4.26 4.26 0 01-4.642.791c-6.854-3.039-14.611-4.644-22.432-4.644-25.825 0-46.836 17.19-46.836 38.32 0 10.881 5.728 21.659 15.322 28.829zM6.731 45.368a4.257 4.257 0 014.257 4.258c0 1.492.26 2.925.733 4.258 1.757-4.956 6.49-8.516 12.041-8.516 7.043 0 12.773 5.73 12.773 12.773 0 7.044-5.73 12.774-12.773 12.774-.22 0-.439-.006-.657-.017a21.117 21.117 0 01-2.932-.292c1.523 4.416 5.498 7.841 10.258 8.643 2.584-7.667 7.47-14.674 14.369-20.423 10.414-8.679 24.213-13.458 38.855-13.458 8.065 0 16.091 1.492 23.379 4.333a29.718 29.718 0 0118.675-6.278 29.535 29.535 0 0120.636 8.697 4.259 4.259 0 010 6.021L133.26 71.225c1.716 2.8 3.039 5.581 3.994 8.399 5.988 1.054 10.552 6.294 10.552 12.58v8.799c0 7.044-5.73 12.774-12.773 12.774h-1.829a49.264 49.264 0 01-10.945 12.737v17.351a4.258 4.258 0 01-4.258 4.258H100.97a4.258 4.258 0 01-4.258-4.258v-5.559a66.935 66.935 0 01-13.057 1.302c-4.281 0-8.558-.433-12.773-1.29v5.547a4.258 4.258 0 01-4.258 4.258H49.592a4.257 4.257 0 01-4.257-4.258v-17.347c-10.702-8.754-17.032-21.433-17.032-34.314 0-1.557.09-3.102.265-4.63-4.181-.781-8.05-2.782-11.168-5.829-4.135-4.042-6.412-9.4-6.412-15.088v-.012c-5.167-3.888-8.515-10.069-8.515-17.019a4.258 4.258 0 014.258-4.258z"/><path d="M83.655 36.852c7.043 0 12.773-5.73 12.773-12.773 0-7.043-5.73-12.773-12.773-12.773-7.043 0-12.773 5.73-12.773 12.773 0 7.043 5.73 12.773 12.773 12.773zM62.366 24.079c0-11.739 9.55-21.289 21.289-21.289s21.289 9.55 21.289 21.289-9.55 21.289-21.289 21.289-21.289-9.55-21.289-21.289zm55.635 55.351a4.259 4.259 0 10.002 8.518A4.259 4.259 0 00118 79.43z"/></g></svg>