<svg viewBox="0 0 117 100" xmlns="http://www.w3.org/2000/svg" fill-rule="evenodd" clip-rule="evenodd" stroke-linejoin="round" stroke-miterlimit="2"><path d="M113.011 34.686a7.927 7.927 0 00-6.232-2.988H84.702L72.731 4.287a3.358 3.358 0 10-6.155 2.687l10.797 24.724H37.417L48.215 6.974a3.358 3.358 0 10-6.155-2.687L30.088 31.698H8.011a7.923 7.923 0 00-6.231 2.989 7.732 7.732 0 00-1.504 6.577L12.065 92.76c.823 3.595 4.004 6.107 7.736 6.107H94.99c3.731 0 6.913-2.512 7.736-6.107l11.789-51.496a7.738 7.738 0 00-1.504-6.578zM94.99 92.15H19.801c-.57 0-1.069-.375-1.188-.89L6.823 39.765a1.03 1.03 0 01.21-.893c.137-.17.444-.457.978-.457h19.143l-.879 2.014a3.359 3.359 0 006.155 2.689l2.055-4.703h45.822l2.054 4.703a3.36 3.36 0 004.422 1.733 3.358 3.358 0 001.732-4.422l-.879-2.014h19.144c.533 0 .842.287.978.457.146.185.302.489.209.893L96.178 91.26c-.118.515-.618.89-1.188.89zM57.395 52.968a3.358 3.358 0 00-3.358 3.359v24.628a3.358 3.358 0 006.717 0V56.327a3.358 3.358 0 00-3.359-3.359zm-20.15 0a3.359 3.359 0 00-3.359 3.359v24.628a3.359 3.359 0 006.717 0V56.327a3.358 3.358 0 00-3.358-3.359zm40.301 0a3.359 3.359 0 00-3.359 3.359v24.628a3.359 3.359 0 006.717 0V56.327a3.358 3.358 0 00-3.358-3.359z" fill="#754d24" fill-rule="nonzero"/></svg>