<svg viewBox="0 0 130 109" xmlns="http://www.w3.org/2000/svg" fill-rule="evenodd" clip-rule="evenodd" stroke-linejoin="round" stroke-miterlimit="2"><path d="M124.695 35.642a8.628 8.628 0 00-6.785-3.253H93.873L80.838 2.543a3.656 3.656 0 10-6.701 2.927l11.756 26.919H42.389L54.145 5.47a3.657 3.657 0 00-6.701-2.927L34.409 32.389H10.372a8.627 8.627 0 00-6.785 3.254 8.426 8.426 0 00-1.638 7.161l12.836 56.068c.897 3.915 4.36 6.65 8.423 6.65h81.866c4.063 0 7.526-2.735 8.423-6.65l12.836-56.068a8.428 8.428 0 00-1.638-7.162zm-19.621 62.566H23.208c-.62 0-1.164-.407-1.293-.968L9.079 41.172c-.101-.44.068-.771.228-.972a1.333 1.333 0 011.065-.498h20.843l-.957 2.193a3.656 3.656 0 106.701 2.928l2.237-5.121h49.891l2.236 5.121a3.66 3.66 0 004.815 1.887 3.656 3.656 0 001.886-4.815l-.957-2.193h20.844c.58 0 .917.313 1.064.498.16.201.329.532.228.972L106.367 97.24c-.128.561-.673.968-1.293.968zm-40.933-42.66a3.656 3.656 0 00-3.657 3.656V86.02a3.657 3.657 0 007.314 0V59.204a3.656 3.656 0 00-3.657-3.656zm-21.94 0a3.655 3.655 0 00-3.656 3.656V86.02a3.656 3.656 0 007.313 0V59.204a3.656 3.656 0 00-3.657-3.656zm43.88 0a3.656 3.656 0 00-3.657 3.656V86.02a3.657 3.657 0 007.313 0V59.204a3.655 3.655 0 00-3.656-3.656z" fill="#fff" fill-rule="nonzero"/></svg>