<svg viewBox="0 0 192 284" xmlns="http://www.w3.org/2000/svg" fill-rule="evenodd" clip-rule="evenodd" stroke-linejoin="round" stroke-miterlimit="2"><path d="M162.228 59.021c2.706-6.302 2.475-13.944 3.921-20.687.247-1.149-1.144-1.731-1.814-1.017-7.806 8.357-23.206 21.37-16.917 35.622a1.145 1.145 0 00-.05.506c-3.105 6.026-6.415 11.92-9.812 17.758 2.031-10.622.242-21.879-3.85-32.229-.347-.888-1.713-1.267-2.071-.217-3.986 11.968-5.09 26.197 2.399 37.382-.036.272.025.52.136.739 0 .029.01.056.01.081-4.878 8.235-9.842 16.405-14.568 24.716 2.348-10.77 1.491-21.966-1.346-33.504-.297-1.197-1.789-1.119-2.242-.236-5.77 11.256-16.267 33.98-2.681 45.199-4.944 9.469-9.388 19.233-12.865 29.591-5.675-21.556-9.489-43.392-12.08-65.352a.885.885 0 00.061-.407c15.838-5.246 28.915-15.847 32.06-34.294.141-.829-.721-1.878-1.527-1.478-13.349 6.62-27.338 13.505-31.435 28.751a657.265 657.265 0 01-1.915-21.554c.02-.057.05-.101.05-.17.005-.068.026-.13.031-.195 14.744-2.017 23.397-15.552 28.733-29.346.454-1.172-.771-2.403-1.799-1.711-9.1 6.095-23.301 12.463-27.504 24.195a850.904 850.904 0 01-.907-17.532c.136-.02.272-.044.408-.121 13.762-7.537 7.413-29.366 3.624-42.249-.268-.901-1.507-1.016-1.85-.193-5.059 12.265-14.478 28.683-4.056 41.523-.026 5.4.05 10.808.226 16.224-2.197-4.954-5.245-9.41-8.909-13.4-5.165-5.632-12.004-7.181-18.368-10.408-1.018-.516-1.728.595-1.265 1.559 3.321 6.839 5.246 15.279 10.361 21.036 5.246 5.913 11.409 7.086 18.237 9.586.111.037.196.028.292.04.323 6.45.821 12.909 1.416 19.355-2.247-4.054-5.165-7.695-8.738-9.928-2.923-1.824-6.113-3.19-9.161-4.698-1.527-.762-7.448-2.786-8.728-4.826-.071-.162-.151-.329-.222-.483-.625-1.332-2.343-.802-1.99.663.09.394.282.778.529 1.148 5.462 12.155 14.195 38.083 29.726 31.491a493.937 493.937 0 0011.424 61.439c-3.941-7.346-8.244-14.735-12.905-21.959.005-.018.02-.032.025-.057 3.079-10.744 2.696-23.088-5.039-32.1-.661-.773-1.744-.192-1.925.636-1.709 7.872-.928 15.728 1.461 23.397-6.037-8.614-12.608-16.838-19.704-24.281.006-.008.011-.01.016-.015 6.611-13.186-4.269-28.113-13.541-37.253-.705-.693-1.905-.124-1.794.897.67 6.221 1.759 12.172 3.805 18.127 1.587 4.612 4.026 8.836 6.4 13.085-6.859-6.577-14.186-12.364-21.961-17.071-.005-.071-.005-.128-.025-.204-1.573-5.671-3.14-12.029-9.162-13.929-5.976-1.883-12.059-.436-18.04-.09-.948.057-1.527 1.459-.645 2.179 7.725 6.338 15.717 18.835 26.41 13.957.131-.066.232-.161.328-.254 8.31 5.522 16.08 12.16 23.327 19.569-8.633-1.698-19.165 2.141-25.554 6.957-.585.444-.535 1.23-.061 1.788 7.74 9.046 24.672 5.105 29.127-5.051 7.725 8.356 14.835 17.547 21.341 27.144-8.531-3.436-17.894-1.982-26.038 1.173-.746.288-1.139 1.529-.347 2.146 8.667 6.721 22.807 11.3 29.167.875 6.767 10.381 12.855 21.121 18.257 31.687.035.067.08.094.121.15 4.076 14.64 9.01 29.505 14.921 43.979-5.689-5.829-12.502-9.914-19.673-13.261 2.514-13.208-7.413-28.189-19.996-30.363-.867-.157-1.471.592-1.24 1.504 2.485 9.641 6.849 19.167 14.004 25.736a220.305 220.305 0 00-3.089-1.227c-6.248-2.409-12.467-4.725-18.489-7.414a1.24 1.24 0 00-.408-.739c2.475-15.971-6.863-32.771-19.008-42.26-.937-.727-1.945.042-1.703 1.193 2.847 13.727 5.689 28.257 14.931 38.86-7.669-3.949-14.86-8.839-21.139-15.777.005-.041.02-.063.025-.104 1.103-17.703-12.059-22.817-25.61-27.693-.816-.29-1.325.657-1.143 1.386 3.401 13.607 9.992 26.733 24.531 26.992.1.004.181-.02.257-.047 6.077 7.812 13.535 13.051 21.573 17.19-10.301.865-19.795 5.594-29.183 9.869-.892.411-1.028 1.694-.085 2.275 7.125 4.4 15.007 6.695 22.953 5.405 7.529-1.22 10.794-7.316 12.538-14.59 7.614 3.375 15.556 6.143 23.216 9.421-10.346 1.942-18.666 11.465-24.264 20.314-.449.712-.227 1.716.65 1.959 12.381 3.453 27.685-5.962 29.57-19.56 8.708 4.225 16.816 9.552 23.352 17.794.151.191.322.312.499.398 4.752 10.907 10.114 21.51 16.105 31.563-3.653-1.402-7.423-2.069-11.227-2.497-1.003-8.812-5.624-16.585-13.919-19.358-.589-.196-1.38.298-1.421.977-.292 5.269 3.291 13.46 8.245 17.75-5.337-.433-10.679-.967-15.854-2.89-5.034-10.009-16.846-6.267-25.131-6.678-.821-.041-1.204 1.044-.771 1.733 6.032 9.548 16.706 13.712 25.297 6.724 5.79 2.873 11.918 3.492 18.036 4.066-4.903 2.834-7.841 9.074-12.689 12.438-.761.536-.479 1.882.438 2.116 10.553 2.659 18.489-2.919 21.553-13.394 3.23.599 6.4 1.51 9.459 3.089a1.424 1.424 0 001.234 1.254c4.047 6.394 8.361 12.545 12.987 18.35 1.078 1.355 3.109.049 2.101-1.483-4.581-6.96-9.03-13.895-13.289-20.927 1.029-4.539 2.959-8.496 5.312-12.194 9.403 4.558 20.127-3.607 22.606-13.16.317-1.235-1.089-1.844-1.915-1.417-5.034 2.608-10.512 4.49-15.455 7.306 4.308-5.531 8.869-10.941 11.771-17.482 4.51-2.179 8.023-4.88 10.134-9.854 2.192-5.157 2.293-11.425 2.615-17.08.071-1.204-1.118-1.916-1.94-1.085-5.936 5.999-17.37 16.114-12.295 26.491-.136.21-.182.466-.146.729-3.407 6.317-8.184 11.711-12.583 17.32.801-6.606-2.067-14.323-5.604-19.493-.554-.803-1.658-.598-1.854.336-1.8 8.641-2.948 17.92 2.912 25.386-2.252 3.425-4.177 7.05-5.407 11.114-5.508-9.262-10.653-18.736-15.249-28.755-.816-1.78-1.592-3.57-2.378-5.367 2.575-5.202 5.871-9.824 9.544-14.14 9.943 5.688 27.293 4.703 29.056-9.189.116-.953-.74-1.933-1.652-1.589-6.567 2.471-13.748 1.821-20.399 3.267 4.147-4.147 8.496-8.124 12.699-12.21 15.178 6.001 30.699 1.17 39.19-13.149.645-1.089-.655-2.214-1.613-1.978-9.796 2.426-19.945 2.604-29.162 6.34 5.956-6.829 10.945-14.39 13.606-23.775.101-.035.197-.063.297-.136 10.275-7.949 11.737-23.478 9.217-36.449-.186-.953-1.406-1.805-2.061-.822-5.775 8.7-17.446 24.846-8.95 36.169-3.739 9.646-9.504 17.405-15.989 24.492 4.132-11.387 1.935-25.095-3.452-36.442-.504-1.057-1.618-1.198-2.192-.23-7.962 13.32-7.035 28.876-1.089 43.648-5.089 5.057-10.33 9.973-15.178 15.242 2.147-10.694-2.862-23.534-9.655-31.534-.584-.686-1.562-.171-1.713.575-1.653 7.967-3.271 15.398-.812 23.577 1.381 4.578 3.825 9.858 7.882 12.321-3.311 4.019-6.329 8.307-8.844 13.064-6.707-15.843-12.155-32.236-16.745-48.813 3.577-11.837 8.556-22.801 14.14-33.403 5.986 4.556 10.476 6.058 17.778 4.1 8.542-2.293 15.405-9.519 19.855-17.247.66-1.143-.665-2.169-1.618-1.993-7.352 1.373-14.906 1.625-22.062 3.872-3.683 1.149-7.16 3.061-10.587 5.015 5.467-9.894 11.323-19.558 16.907-29.408 13.283 6.04 32.825-4.51 35.642-19.042.176-.901-.534-1.792-1.396-1.732-10.32.72-21.018 4.358-29.041 11.299 2.651-4.977 5.19-10.026 7.509-15.218 5.069-4.422 10.39-8.682 13.202-15.222z" fill="#d19e66" fill-rule="nonzero"/></svg>