<svg viewBox="0 0 205 109" xmlns="http://www.w3.org/2000/svg" fill-rule="evenodd" clip-rule="evenodd" stroke-linejoin="round" stroke-miterlimit="2"><g fill="#603916" fill-rule="nonzero"><path d="M192.594 24.942c-5.339-5.785-12.946-8.981-21.4-8.981h-20.347V4.959a4.87 4.87 0 00-4.855-4.856H49.065a4.87 4.87 0 00-4.855 4.856v16.908H25.319a4.869 4.869 0 00-4.854 4.855 4.867 4.867 0 004.854 4.853h23.786c2.67 0 4.855-2.182 4.855-4.853V9.812h87.218v76.093H95.466c-.203 0-.405 0-.608.041-2.426-5.987-8.292-10.235-15.128-10.235-6.878 0-12.743 4.288-15.131 10.316a4.66 4.66 0 00-1.051-.122H53.96v-16.95a4.869 4.869 0 00-4.855-4.855H25.319a4.869 4.869 0 00-4.854 4.855c0 2.67 2.185 4.855 4.854 4.855H44.21v16.908a4.87 4.87 0 004.855 4.856H63.83c1.618 7.28 8.133 12.703 15.9 12.703 7.766 0 14.239-5.423 15.896-12.703H153.8c1.657 7.241 8.13 12.703 15.897 12.703 7.768 0 14.239-5.423 15.898-12.703h10.842c2.669 0 4.854-2.185 4.854-4.856V50.387c0-10.478-3.034-19.296-8.697-25.445zM79.73 98.608a6.595 6.595 0 010-13.189 6.595 6.595 0 010 13.189zm89.967 0a6.595 6.595 0 116.595-6.594c-.041 3.641-2.994 6.594-6.595 6.594zm21.886-12.703h-6.798c-2.425-5.946-8.292-10.194-15.088-10.194-6.795 0-12.662 4.207-15.089 10.194h-3.722V25.669h20.35c12.742 0 20.347 9.264 20.347 24.758v35.478z"/><path d="M86.929 56.939a4.862 4.862 0 000 6.878 4.871 4.871 0 003.439 1.417c1.254 0 2.467-.486 3.439-1.417l12.541-12.541c.081-.12.202-.201.283-.323.041-.082.08-.121.12-.202.041-.081.081-.12.162-.201l.123-.244c.039-.081.081-.122.12-.203l.122-.243c.04-.081.081-.12.081-.201.04-.081.04-.162.081-.243.04-.081.04-.162.082-.202.039-.081.039-.162.039-.243 0-.081.041-.162.041-.243 0-.081.04-.162.04-.282 0-.081.041-.123.041-.204.04-.323.04-.645 0-.97 0-.081 0-.122-.041-.203 0-.081-.04-.162-.04-.283 0-.08-.041-.161-.041-.242 0-.081-.039-.162-.039-.243-.042-.081-.042-.162-.082-.202-.041-.081-.041-.162-.081-.243-.041-.081-.081-.122-.081-.203l-.122-.241c-.039-.081-.081-.123-.12-.204l-.123-.242c-.04-.081-.081-.121-.162-.202-.04-.081-.079-.123-.12-.201-.081-.123-.202-.204-.283-.325L94.414 32.304a4.862 4.862 0 00-6.878 0 4.86 4.86 0 000 6.878l3.6 3.599H8.411a4.87 4.87 0 00-4.856 4.855 4.87 4.87 0 004.856 4.855h82.686l-4.168 4.448z"/></g></svg>