<svg viewBox="0 0 80 80" xmlns="http://www.w3.org/2000/svg" fill-rule="evenodd" clip-rule="evenodd" stroke-linejoin="round" stroke-miterlimit="2"><path d="M6.422 6.101C.599 12.149 1.791 18.574 1.791 38.094c0 16.21-2.829 32.459 11.973 36.285 4.622 1.188 45.575 1.188 50.191-.006 6.163-1.591 11.177-6.589 11.863-15.306.096-1.216.096-40.709-.003-41.95-.729-9.284-6.444-14.635-13.975-15.719-1.726-.25-2.071-.325-10.927-.34-31.409.015-38.294-1.383-44.491 5.043zM38.83 10.75c-11.21 0-21.853-.995-25.918 9.439-1.679 4.31-1.436 9.908-1.436 17.923 0 7.034-.225 13.644 1.436 17.92 4.057 10.442 14.789 9.442 25.917 9.442 10.735 0 21.804 1.118 25.92-9.442 1.683-4.353 1.435-9.868 1.435-17.92 0-10.689.591-17.59-4.594-22.771-5.248-5.247-12.344-4.591-22.76-4.591h.005-.013.008zm-2.446 4.931c23.385-.037 26.361-2.637 24.718 33.479-.583 12.773-10.309 11.371-22.264 11.371-21.798 0-22.425-.624-22.425-22.431 0-22.061 1.729-22.407 19.971-22.426v.007zm2.451 8.379c-7.759 0-14.048 6.293-14.048 14.052 0 7.759 6.289 14.048 14.048 14.048s14.046-6.289 14.046-14.048S46.594 24.06 38.835 24.06zm0 4.932c6.029 0 9.047 4.56 9.048 9.12.002 4.561-3.012 9.121-9.048 9.121-12.054 0-12.073-18.241 0-18.241zm14.604-8.769a3.283 3.283 0 10.002 6.566 3.283 3.283 0 00-.002-6.566z" fill="#754d24"/></svg>