<svg viewBox="0 0 63 75" xmlns="http://www.w3.org/2000/svg" fill-rule="evenodd" clip-rule="evenodd" stroke-linejoin="round" stroke-miterlimit="2"><g fill="#754d24" fill-rule="nonzero"><path d="M27.255 73.992c1.113-.726 2.202-1.314 3.148-2.077 9.827-7.909 18.366-16.902 23.835-28.461 3.109-6.573 5.015-13.522 6.26-20.655.589-3.38.917-6.811 1.275-10.227.324-3.116-2.195-5.5-4.574-7.08-2.233-1.483-4.808-2.365-7.442-2.801-2.057-.338-3.688.682-4.56 2.595-1.881 4.138-3.48 8.376-4.476 12.824-.614 2.737.584 5.512 3.414 6.425.686.223 1.344.527 2.007.811.581.25 1.137.51 1.61.938.867.785 1.225 1.903 1.149 3.053-.571 8.849-3.657 16.503-10.728 22.205-1.132.913-2.242 1.915-3.777 2.177-2.571.435-4.171-2.054-6.331-2.97-2.108-.893-4.288-.277-5.783 1.421-1.495 1.697-2.909 3.462-4.306 5.238-1.374 1.743-2.747 3.457-3.935 5.335-1.143 1.806-1.153 3.739.251 5.323 2.571 2.904 5.698 5.03 9.55 5.846 1.088.23 2.258.064 3.413.08 1.113-.726-1.155-.016 0 0zm-1.34-68.509C11.41 10.171 2.236 23.39 3.891 38.601c.282 2.592.862 5.157 1.397 7.713.226 1.077 1.113 1.902 2.253 1.584 1.175-.329 1.417-1.463 1.185-2.538-.457-2.125-.965-4.246-1.281-6.393-1.672-11.338 4.38-22.893 14.658-27.998 1.548-.769 3.196-1.333 4.798-1.991 1.012-.415 2.363-.878 2.214-2.244-.123-1.146-1.296-1.744-2.351-1.497-.286.067-.565.163-.849.246-14.505 4.688.284-.083 0 0z"/><path d="M12.116 40.796c.076.175.216.601.44.975.818 1.354 3.097.887 3.177-.744.024-.484-.101-.991-.238-1.465-.901-3.099-1.132-6.391-.359-9.542.797-3.241 2.569-6.288 5.034-8.537 1.491-1.362 3.218-2.44 5.032-3.315.793-.38 1.611-.71 2.414-1.073.974-.437 1.327-1.241.987-2.229-.319-.923-1.2-1.398-2.206-1.04-3.301 1.171-6.331 2.845-8.852 5.297-5.129 4.988-7.111 11.075-6.143 18.143.045.321.059.646.126.961.165.778.353 1.549.588 2.569.076.175-.235-1.02 0 0z"/><path d="M21.108 37.782c1.231-.336 1.688-1.205 1.485-2.364-.141-.808-.304-1.62-.339-2.435-.07-1.608.32-3.23 1.312-4.518a6.584 6.584 0 011.697-1.529c.821-.523 1.776-.724 2.607-1.206.902-.521 1.21-1.467.79-2.335-.381-.789-1.378-1.2-2.267-.87-5.55 2.067-8.747 6.183-7.372 13.029.097.482.194.995.431 1.413.404.721 1.088.939 1.656.815 1.231-.336-.568.124 0 0z"/></g></svg>