<svg viewBox="0 0 146 117" xmlns="http://www.w3.org/2000/svg" fill-rule="evenodd" clip-rule="evenodd" stroke-linejoin="round" stroke-miterlimit="2"><g fill="#603916" fill-rule="nonzero"><path d="M24.963 28.613c-8.407 0-12.585 6.255-12.585 13.937v50.174c0 7.683 6.255 13.938 13.938 13.938h94.774c7.682 0 13.937-6.255 13.937-13.938V42.55c0-7.682-5.738-13.937-14.146-13.937h-16.516a8.358 8.358 0 01-7.933-5.715l-1.762-5.29a8.355 8.355 0 00-7.933-5.72H60.669a8.346 8.346 0 00-7.928 5.714l-1.767 5.296a8.358 8.358 0 01-7.933 5.715H24.963zm98.65 86.444h-99.82c-11.333 0-20.552-9.219-20.552-20.551V41.659c0-11.332 9.219-20.551 20.552-20.551h17.615a2.941 2.941 0 002.789-2.008l1.856-5.572A14.65 14.65 0 0159.975 3.493h27.456c6.33 0 11.926 4.034 13.928 10.041l1.855 5.566a2.93 2.93 0 002.784 2.008h17.615c11.333 0 20.551 9.219 20.551 20.551v52.847c0 11.332-9.218 20.551-20.551 20.551z"/><path d="M73.703 38.996c-15.005 0-27.213 12.207-27.213 27.212 0 15.005 12.208 27.213 27.213 27.213s27.213-12.208 27.213-27.213-12.208-27.212-27.213-27.212zm0 62.443c-19.43 0-35.231-15.801-35.231-35.231 0-19.429 15.801-35.23 35.231-35.23s35.231 15.801 35.231 35.23c0 19.43-15.801 35.231-35.231 35.231z"/></g></svg>