<svg viewBox="0 0 71 75" xmlns="http://www.w3.org/2000/svg" fill-rule="evenodd" clip-rule="evenodd" stroke-linejoin="round" stroke-miterlimit="2"><path d="M68.634 19.354l-.022-.082c-1.685-6.814-9.282-14.124-16.26-15.646l-.078-.015a90.317 90.317 0 00-34.012 0l-.08.015C11.206 5.148 3.609 12.458 1.921 19.272l-.019.082a66.586 66.586 0 000 28.678l.019.084c1.616 6.522 8.648 13.497 15.364 15.415 0 0 1.051 4.804 1.828 10.404.068.491 2.002-1.354 4.239-3.178 3.149-2.567 6.901-5.512 6.901-5.512 1.67.093 3.343.145 5.015.145 5.681 0 11.365-.537 17.006-1.613l.078-.017c6.978-1.52 14.575-8.831 16.26-15.644l.022-.084a66.586 66.586 0 000-28.678zm-48.073-2.303c.667.006 1.29.33 1.796.916 1.646 1.911 3.157 3.918 4.38 6.131.753 1.362.547 3.026-.817 3.953-.331.225-.634.49-.943.744-.27.224-.525.449-.711.751-.339.552-.356 1.204-.136 1.804 1.681 4.623 4.516 8.217 9.169 10.153.745.309 1.492.67 2.35.57 1.437-.168 1.901-1.743 2.908-2.567.984-.803 2.241-.815 3.301-.143 1.06.67 2.088 1.39 3.108 2.118 1.003.714 2.001 1.413 2.926 2.228.889.783 1.196 1.811.695 2.873-.917 1.947-2.25 3.566-4.174 4.6-.536.287-1.173.382-1.777.565l-.029.009c-.705-.214-1.376-.357-1.999-.616-6.464-2.681-12.41-6.14-17.122-11.443-2.679-3.015-4.775-6.419-6.549-10.022-.84-1.709-1.548-3.484-2.271-5.248-.658-1.608.312-3.27 1.333-4.481.958-1.138 2.192-2.008 3.526-2.65a2.353 2.353 0 011.013-.245h.023zm21.981 34.554c-.151.003-.265.051.065.151l.014-.004c.296-.095.102-.147-.064-.147h-.015zm-9.675-36.528c8.357.325 15.196 5.911 16.671 14.197.253 1.425.343 2.88.456 4.325.048.608-.296 1.186-.953 1.194-.677.008-.982-.559-1.026-1.167-.087-1.202-.147-2.411-.313-3.603-.875-6.298-5.896-11.507-12.164-12.625-.944-.169-1.909-.213-2.864-.313-.604-.064-1.395-.1-1.528-.851-.113-.629.418-1.13 1.018-1.163.163-.009.327-.001.49-.001 7.558.213 1.47.045.213.007l-.213-.007.213.007zm.775 4.508l.055.002c1.939.11 3.814.529 5.537 1.443 3.508 1.857 5.511 4.789 6.096 8.703.026.178.069.353.083.532l.087 1.459c-.014.105-.021.354-.082.588-.225.847-1.512.954-1.808.098-.088-.254-.101-.544-.102-.817-.002-1.791-.392-3.579-1.294-5.137-.929-1.601-2.347-2.948-4.009-3.761-1.006-.493-2.094-.798-3.196-.982-.481-.079-.968-.127-1.452-.195-.587-.082-.9-.455-.873-1.033.025-.521.391-.901.944-.9h.014zm11.84 11.903c-.002.004 0 .081.004.148.004.067.009.124.014.088l-.018-.236zm-5.388.028c-.612-.042-.943-.423-1.01-1.024-.051-.453-.09-.91-.199-1.35-.212-.867-.673-1.67-1.401-2.201a3.656 3.656 0 00-1.142-.55c-.519-.15-1.058-.109-1.576-.236-.562-.137-.872-.593-.784-1.121.08-.479.547-.853 1.071-.816 3.277.237 5.62 1.931 5.954 5.79.024.271.052.56-.009.819-.096.418-.391.64-.693.685a3.817 3.817 0 00-.211.004c.048.003.097.004.149.003l-.062.001c-.278.005-.205 0-.087-.004z" fill="#754d24" fill-rule="nonzero"/></svg>