<svg viewBox="0 0 1955 338" xmlns="http://www.w3.org/2000/svg" fill-rule="evenodd" clip-rule="evenodd" stroke-linecap="round" stroke-linejoin="round" stroke-miterlimit="1.5"><g fill="#34c700"><path d="M322.457 136.623c-7.478 12.134-46.766 81.513-20.156 99.935 26.61 18.422 45.8-11.77 45.8-11.77s-5.025 20.776-18.842 31.011c-13.816 10.235-42.815-6.705-72.757 2.252-58.235 17.419-59.3 74.835-51.879 78.365 7.42 3.531.297-9.897 4.288-23.099 16.391-54.225 59.856-38.049 95.57-33.692 41.86 5.107 50.528-66.095 50.528-66.095l3.838-5.629s-2.046-4.094-4.605-1.279c-2.559 2.814-22.772 29.424-35.054 27.377-12.281-2.047 1.28-31.727 9.723-57.057 8.444-25.331 80.733-169.599 78.792-171.946-1.941-2.348-20.776 8.258-20.776 8.258s5.481 3.175-34.781 66.365c-24.549 38.528-69.898 98.095-109.655 129.532-25.995 20.556-44.031 30.856-54.898 23.043-12.8-9.202 75.224-136.295 88.785-162.393 13.561-26.098 12.923-45.796-24.499-62.431C218.827-7.323 56.121 16.258 10.535 120.718c-38.076 87.249 77.168 66.6 120.292 38.188 60-39.532 90.336-94.039 90.336-94.039l5.764-12.996c5.764-12.995.562-15.553.562-15.553s-3.773-.105-5.345 4.716c-1.572 4.821-31.253 68.774-90.204 105.619-58.951 36.844-134.268 38.568-108.691-16.785C57.052 56.713 159.862 15.787 195.19 12.375c34.077-3.29 83.719 2.661 70.414 28.657-13.305 25.996-49.213 75.756-72.896 119.615-14.357 26.589-20.472 50.659-21.16 60.207-1.859 25.807 35.235 31.36 71.745 1.33 41.808-34.388 79.164-85.561 79.164-85.561zm84.048 102.617c-3.348 1.955-7.455 3.259-12.468 3.677-38.891 3.235-18.636-50.787-14.559-64.433 4.078-13.647 55.278-140.871 96.246-124.464 14.486 5.801-1.431 37.857-21.249 59.855-15.923 17.674-35.143 26.47-37.242 27.989-3.466 2.509-7.704 13.387-9.702 18.965 14.566-14.682 30.576-22.181 40.759-17.651 14.153 6.296 11.728 33.459-5.413 60.62-10.516 16.663-24.143 29.479-36.372 35.442zm-3.012-9.253s-9.467 7.811-15.811 4.227c-7.424-4.195 1.013-35.382 10.794-49.879 9.782-14.498 25.852-35.109 36.856-30.567 11.004 4.541-11.452 56.194-31.839 76.219zm16.391-99.335c-1.26-.56 30.254-61.058 39.513-68.023 7.585-5.706 14.412.724 7.565 14.698s-29.192 47.875-47.078 53.325zm63.298 77.854c-3.744 14.284-3.506 26.113 3.841 26.649 16.239 1.184 35.057-16.649 38.634-20.87 3.577-4.221 6.654-1.646 6.654-1.646s1.632 1.428.375 4.921c-1.258 3.493-16.557 17.486-32.103 22.726-15.545 5.24-43.813 5.532-32.078-42.508 10.119-41.424 46.935-60.723 67.012-53.386 8.713 3.184 10.855 20.806-.045 33.941-10.57 12.739-32.433 29.551-52.29 30.173zm41.506-37.189c6.833-12.822 7.906-35.101-13.624-11.554-11.79 12.894-19.052 26.034-25.062 42.426 6.052-.929 25.669-6.448 38.686-30.872zm35.416-19.839s-1.857 7.386 1.908 6.439c4.686-1.179 15.144-6.439 15.978-1.073.835 5.366-11.749 37.171-20.525 53.324-8.776 16.154-13.355 22.895-13.355 27.346 0 4.452 8.776 6.869 14.754 1.4 5.978-5.47 23.021-29.139 37.14-46.176 14.118-17.038 22.894-27.341 22.64-23.652-.127 1.832-9.628 19.352-17.494 37.162-7.969 18.041-14.304 36.363-14.304 36.363s14.118 1.32 19.714-7.456c5.597-8.777 26.027-39.441 37.554-52.16 11.526-12.719 15.302-14.67 15.7-12.8.397 1.87-21.023 43.122-21.327 52.311-.503 15.17 6.84 25.904 29.222 16.766 9.825-4.012 14.691-11.473 17.336-16.144 3.393-5.993 2.803-8.872.848-9.71-3.478-1.49-16.925 24.508-29.272 21.737-7.466-1.676 1.739-18.362 5.466-26.808 3.726-8.447 27.574-59.468 28.071-60.538.497-1.07 1.444-4.419-1.242-4.944-13.544-2.651-45.461 23.996-57.882 45.111-12.421 21.116 20.522-38.763 20.522-41.82 0-3.058-10.013-5.457-21.764 3.268-10.407 7.727-47.317 49.3-47.696 48.241-1.009-2.817 32.138-50.104 9.035-53.185-23.103-3.082-30.02 4.949-31.027 6.998zm219.462 48.221a91.526 91.526 0 01-4.338 7.419c-13.53 20.823-37.382 37.651-50.334 35.938-34.709-4.591-22.177-47.149-6.539-69.541 14.673-21.011 33.848-32.164 57.044-30.834 0 0 2.035 4.357.162 5.128-1.872.771-16.005.202-25.316 10.377-17.082 18.666-39.487 68.305-28.961 75.2 15.478 10.141 34.955-13.592 46.312-37.006l-.101-.038c-15.162-5.698-16.077-46.094 6.613-45.585 4.067.091 6.947 1.447 8.935 3.61 7.686 5.956 6.669 23.19-1.163 40.575 2.811-.008 5.942.425 7.736-.801 4.477-3.059 6.064-2.785 3.927 1.896-1.485 3.253-6.167 4.885-13.977 3.662zm-6.658-41.427c-.556-.042-1.171.01-1.848.162-2.782 2.054-6.074 10.732-6.106 18.668-.018 4.205.88 8.202 3.253 10.896a25.448 25.448 0 002.198 2.215c4.642-2.963 8.371-30.155 2.503-31.941zm996.002 41.427a91.512 91.512 0 01-4.337 7.419c-13.531 20.823-37.382 37.651-50.335 35.938-34.709-4.591-22.176-47.149-6.538-69.541 14.672-21.011 33.847-32.164 57.043-30.834 0 0 2.035 4.357.163 5.128-1.872.771-16.005.202-25.316 10.377-17.082 18.666-39.488 68.305-28.962 75.2 15.478 10.141 34.955-13.592 46.313-37.006l-.102-.038c-15.161-5.698-16.077-46.094 6.614-45.585 4.066.091 6.946 1.447 8.934 3.61 7.687 5.956 6.669 23.19-1.163 40.575 2.812-.008 5.943.425 7.736-.801 4.477-3.059 6.064-2.785 3.928 1.896-1.486 3.253-6.168 4.885-13.978 3.662zm-6.658-41.427c-.555-.042-1.17.01-1.848.162-2.782 2.054-6.073 10.732-6.106 18.668-.017 4.205.88 8.202 3.253 10.896a25.448 25.448 0 002.198 2.215c4.643-2.963 8.372-30.155 2.503-31.941zm-940.703-3.97c-.802-.814-1.786-1.957-2.994-3.535-9.188-12.001-1.335-34.309 13.431-26.862 8.133 4.101 6.485 15.494 5.321 20.446 4.518-1.702 9.232-2.476 13.848-1.776 22.894 3.472-7.831 49.944-14.19 59.881-6.36 9.936-19.476 31.002-10.533 31.797 8.943.795 25.836-19.476 28.22-21.662 2.385-2.186 4.14-1.665 5.117.484.977 2.149-21.873 37.71-41.511 28.145-19.638-9.565-8.445-30.424-2.035-39.887 6.41-9.463 30.379-46.355 21.222-48.008-6.322-1.142-13.955 13.494-19.663 20.016-2.561 2.927-5.515 1.152-6.438.894-4.539-1.263.762-11.414 10.205-19.933zm108.102 34.391c7.011-16.019 15.139-30.82 17.642-36.288 6.042-13.196 21.623-8.527 21.623-8.527s.488.395.638 2.128c.132 1.525-.161 2.424-.161 2.424s-46.909 82.111-32.501 85.285c14.408 3.175 21.734-16.036 24.583-19.699 2.849-3.663 6.349-.733 6.349-.733 2.248 9.049-18.941 35.469-42.153 27.663-12.026-4.045-7.409-24.123.674-44.368l-23.023-.59c-9.075 20.961-19.432 41.827-22.634 43.119-5.099 2.057-12.376 2.623-13.673.477-.874-1.447 29.254-64.868 30.844-72.976 1.59-8.108 1.908-12.878-4.293-11.606-6.2 1.272-11.918 4.267-13.431.623 0 0-2.747-6.817 9.463-9.972 12.21-3.154 30.845-3.237 28.796 9.362-.911 5.597-5.8 18.897-11.816 33.314l23.073.364zm119.589 27.817c-4.464 7.063-11.697 13.935-22.54 19.518-40.145 20.668-45.511-2.385-42.728-13.713 1.764-7.182 22.655-60.018 24.841-64.057 2.187-4.039-7.551-4.506-9.141-6.692-1.59-2.186.596-8.49.596-8.49l33.189-.501s1.391 3.029.993 7.798c-.397 4.77-19.603 40.021-31.05 67.875-11.447 27.855 8.124 18.212 20.223 7.886 4.61-3.934 8.366-8.53 11.288-13.225-2.834-1.018-10.337-2.75-13.066-13.708-.614-2.465-.58-7.159-.114-8.988 1.193-4.677 3.578-13.607 19.675-13.408 10.28.127 17.804 15.815 11.444 32.524 3.166.233 6.115-.371 8.407-1.093 1.211-3.801 2.65-7.726 4.22-11.658l3.306-7.885c7.011-16.019 15.139-30.82 17.642-36.288 6.042-13.196 21.623-8.527 21.623-8.527s.488.395.638 2.128c.132 1.525-.161 2.424-.161 2.424s-46.909 82.111-32.501 85.285c14.408 3.175 21.734-16.036 24.583-19.699 2.849-3.663 6.349-.733 6.349-.733 2.248 9.049-18.941 35.469-42.153 27.663-8.044-2.706-8.642-12.585-5.736-24.89-3.57.927-7.904.648-9.827.454zm-10.811-10.114c4.434-9.594 5.379-18.508 3.001-21.853-4.07-5.724-9.831-1.844-11.447 1.526-6.883 14.356 4.156 18.221 8.446 20.327zm126.921 10.674c-24.663 25.452-54.198 37.696-50.005 5.245.948-7.335 22.656-60.018 24.842-64.057 2.186-4.039-7.552-4.506-9.142-6.692-1.589-2.186.597-8.49.597-8.49l33.188-.501s1.392 3.029.994 7.798c-.397 4.77-19.603 40.021-31.05 67.875-10.257 24.957 15.003 4.13 39.189-26.371l1.335-3.184c7.011-16.019 15.139-30.82 17.643-36.288 6.041-13.196 21.622-8.527 21.622-8.527s.489.395.639 2.128c.132 1.525-.162 2.424-.162 2.424s-46.909 82.111-32.501 85.285c14.408 3.175 21.735-16.036 24.584-19.699 2.849-3.663 6.349-.733 6.349-.733 2.247 9.049-18.941 35.469-42.154 27.663-7.821-2.631-8.603-12.044-5.968-23.876z"/><path d="M1168.39 97.409c1.988-6.958 11.158-9.63 12.721-7.372 1.563 2.257 13.459 24.225 24.139 15.976 10.679-8.249 13.371-15.976 16.757-14.153 2.516 1.355 4.286 4.537 3.529 5.903-2.782 5.019-9.607 11.429-17.169 15.977-5.456 3.281-8.716 5.968-23.349 4.69-16.768-1.466-18.382-14.882-16.628-21.021z" stroke="#89bd2d" stroke-width=".83"/><path d="M1650.23 209.67l1.55.213-1.55-.213zm-60.18 20.835c-4.164 1.458-63.058 21.287-139.674 4.686-79.494-17.223-117.386-15.898-137.524 0-2.603 2.055-12.483 4.875-9.3-3.358 1.201-3.106 23.344-39.833 115.557-21.55 92.213 18.284 129.84 23.054 153.688 18.284 1.55-.31 2.973-.572 4.279-.791.706.143 1.434.29 2.175.442 3.636.742 7.595 1.569 10.799 2.287zm-68.436-40.911c-2.893.549-5.815.991-8.756 1.306-130.667 13.984-182.797-21.453-182.797-80.451 0-58.998 82.086-107.18 182.148-107.18 39.343 0 75.776 7.405 105.505 19.979l-11.005 14.319c-30.809-24.025-137.931-24.025-164.782-15.828-26.852 8.196-99.774 34.2-102.6 86.206-2.827 52.007 58.451 67.329 159.355 63.372 100.904-3.957 126.964-58.849 126.964-58.849s-16.336-13.408-16.111-43.81c.32-43.247 37.111-67.546 38.157-63.03 1.514 6.531 6.782 19.522 7.247 33.659.357 10.867-6.116 35.306-4.42 28.523 1.696-6.784 14.132-35.331 14.132-35.331s8.197 13.002 8.197 32.504c0 19.503-14.256 33.865-14.256 33.865l-.32.245c-2.823 2.16-23.371 17.905-23.731 18.548-20.435 36.479-47.552 45.685-63.323 53.676a404.962 404.962 0 01-3.177 1.593c3.14-.109 5.435.275 6.379 1.325 5.065 5.631 21.708 4.259 35.455 18.64 11.759 12.301 34.06 16.002 40.271 16.784a.029.029 0 01.024.023.028.028 0 01-.014.03l-.243.137c-70.736 40.42-120.063-10.797-128.299-20.255zm108.913 8.613l.122-.099c53.062-42.811 36.48-102.506 36.48-102.506 11.729-10.106 9.886-30.039 9.886-30.039s11.821-1.617 15.005 48.662c3.184 50.278-45.995 86.898-45.995 86.898l-.07.201c-6.674.463-12.068-1.436-15.428-3.117zm-124.434-31.297s-9.037-4.583-4.639-16.883c4.398-12.301 20.076-42.783 32.618-51.42 12.541-8.637 29.666-14.908 32.319-29.379 2.653-14.471 3.618-28.943 5.306-27.737.845.604 11.441 39.254-.971 70.247-12.387 30.933-47.766 54.208-64.633 55.172zm310.397 62.085s-9.509 8.891-18.894 4.939c-9.385-3.951 13.337-10.314 9.632-24.051-3.705-13.737-26.303-3.734-25.315 9.232.988 12.967 3.211 24.335 27.167 22.664 23.957-1.67 43.314-57.743 51.465-70.462 8.15-12.72 20.653-26.789 23.493-22.096 2.841 4.692-14.077 48.531-22.228 63.597-8.15 15.065-19.264 28.239-3.334 30.358 15.93 2.119 49.504-53.821 61.274-66.556 11.77-12.735-.965 4.245-8.49 21.803-7.525 17.559-21.032 45.513-5.596 44.753 15.437-.76 30.294-1.724 30.101-6.355-.193-4.631.772-6.754-5.596-5.017-6.367 1.737-15.822 6.174-7.911-13.507s36.454-76.001 29.997-75.722c-6.457.278-17.455-.425-35.399 24.335-17.945 24.76-40.327 55.825-41.099 51.966-.772-3.859 29.522-55.956 20.067-69.848-9.455-13.893-24.371-4.682-30.101 1.929-15.05 17.366-35.95 67.703-49.233 78.038z"/><path d="M525.173 54.65h-10.36v28.753h-4.227V54.65h-10.337v-3.475h24.924v3.475zm48.445 13.679c0 3.158-.531 5.914-1.593 8.268-1.063 2.353-2.568 4.15-4.516 5.39-1.948 1.239-4.22 1.859-6.818 1.859-2.538 0-4.788-.624-6.751-1.871-1.962-1.246-3.486-3.025-4.571-5.334-1.084-2.31-1.641-4.984-1.671-8.024v-2.324c0-3.099.539-5.837 1.616-8.212 1.077-2.376 2.601-4.195 4.571-5.457 1.97-1.261 4.224-1.892 6.762-1.892 2.583 0 4.859.623 6.829 1.87 1.97 1.247 3.486 3.055 4.549 5.423 1.062 2.369 1.593 5.125 1.593 8.268v2.036zm-4.227-2.081c0-3.821-.768-6.754-2.303-8.798-1.534-2.044-3.681-3.066-6.441-3.066-2.686 0-4.799 1.022-6.342 3.066-1.542 2.044-2.335 4.881-2.379 8.511v2.368c0 3.704.778 6.615 2.335 8.732 1.557 2.118 3.7 3.177 6.43 3.177 2.745 0 4.87-1 6.375-2.999 1.506-2 2.28-4.866 2.325-8.6v-2.391zm34.345 4.538v12.617h-4.25V51.175h11.887c3.527 0 6.29.9 8.289 2.7 2 1.8 3 4.184 3 7.15 0 3.128-.978 5.537-2.933 7.227-1.956 1.689-4.756 2.534-8.401 2.534h-7.592zm0-3.475h7.637c2.272 0 4.014-.536 5.224-1.608 1.21-1.071 1.815-2.62 1.815-4.645 0-1.922-.605-3.459-1.815-4.612s-2.871-1.752-4.981-1.796h-7.88v12.661zm63.83-12.661h-15.539v28.753h-4.272V51.175h19.811v3.475zm48.025 13.679c0 3.158-.531 5.914-1.594 8.268-1.062 2.353-2.568 4.15-4.515 5.39-1.948 1.239-4.221 1.859-6.818 1.859-2.538 0-4.789-.624-6.751-1.871-1.963-1.246-3.487-3.025-4.571-5.334-1.085-2.31-1.642-4.984-1.671-8.024v-2.324c0-3.099.538-5.837 1.616-8.212 1.077-2.376 2.6-4.195 4.57-5.457 1.97-1.261 4.225-1.892 6.763-1.892 2.582 0 4.858.623 6.828 1.87 1.97 1.247 3.487 3.055 4.549 5.423 1.063 2.369 1.594 5.125 1.594 8.268v2.036zm-4.228-2.081c0-3.821-.767-6.754-2.302-8.798-1.535-2.044-3.682-3.066-6.441-3.066-2.686 0-4.8 1.022-6.342 3.066-1.542 2.044-2.335 4.881-2.38 8.511v2.368c0 3.704.779 6.615 2.336 8.732 1.557 2.118 3.7 3.177 6.43 3.177 2.745 0 4.87-1 6.375-2.999 1.505-2 2.28-4.866 2.324-8.6v-2.391zm30.096 17.155V51.175h10.536c3.497 0 6.128.723 7.891 2.169 1.764 1.446 2.645 3.586 2.645 6.419 0 1.505-.428 2.837-1.283 3.995-.856 1.159-2.022 2.055-3.498 2.69 1.741.487 3.118 1.413 4.128 2.778 1.011 1.365 1.517 2.992 1.517 4.88 0 2.893-.937 5.165-2.812 6.818-1.874 1.653-4.522 2.479-7.946 2.479h-11.178zm4.25-15.074v11.599h7.017c1.977 0 3.537-.513 4.681-1.538 1.144-1.026 1.716-2.439 1.716-4.239 0-3.881-2.111-5.822-6.331-5.822h-7.083zm0-3.409h6.419c1.859 0 3.346-.465 4.46-1.397 1.114-.932 1.671-2.196 1.671-3.793 0-1.775-.516-3.065-1.549-3.871s-2.605-1.209-4.715-1.209h-6.286v10.27zm47.914-.597h8.013c3.365.044 5.991.907 7.88 2.59 1.889 1.682 2.833 3.969 2.833 6.861 0 2.907-.951 5.224-2.855 6.951-1.904 1.726-4.501 2.619-7.792 2.678h-12.329V51.175h4.25v13.148zm0 3.475v12.13h7.77c2.11 0 3.751-.562 4.925-1.685 1.173-1.124 1.759-2.632 1.759-4.524 0-1.819-.564-3.253-1.693-4.302-1.129-1.05-2.734-1.59-4.814-1.619h-7.947zm26.872 15.605h-4.25V51.175h4.25v32.228zm47.693-32.228h4.25v32.228h-4.25V58.568l-15.871 24.835h-4.272V51.175h4.272V76.01l15.871-24.835zm-1.195-8.036c0 1.793-.609 3.233-1.826 4.322-1.218 1.088-2.815 1.633-4.792 1.633-1.978 0-3.579-.548-4.804-1.644-1.225-1.096-1.837-2.533-1.837-4.311h3.342c0 1.033.281 1.841.842 2.424.56.583 1.379.875 2.457.875 1.032 0 1.84-.288 2.423-.864.583-.575.875-1.387.875-2.435h3.32zm63.534 8.036h4.272v28.753h15.893V51.175h4.25v28.664h3.386l-.398 11.334h-3.829v-7.77h-23.574V51.175zm70.713 17.331h-13.967v11.422h16.225v3.475h-20.475V51.175h20.254v3.475h-16.004v10.381h13.967v3.475zm51.81 14.897h-4.273V68.506h-16.247v14.897h-4.25V51.175h4.25v13.856h16.247V51.175h4.273v32.228zm48.67-28.753h-10.36v28.753h-4.227V54.65h-10.338v-3.475h24.925v3.475zm28.52 16.136v12.617h-4.25V51.175h11.886c3.527 0 6.29.9 8.29 2.7 1.999 1.8 2.999 4.184 2.999 7.15 0 3.128-.977 5.537-2.933 7.227-1.955 1.689-4.755 2.534-8.4 2.534h-7.592zm0-3.475h7.636c2.273 0 4.014-.536 5.224-1.608 1.21-1.071 1.815-2.62 1.815-4.645 0-1.922-.605-3.459-1.815-4.612s-2.87-1.752-4.98-1.796h-7.88v12.661z" fill-rule="nonzero"/></g></svg>